<svg xmlns="http://www.w3.org/2000/svg" width="120.35" height="162.254" viewBox="0 0 31.842603 42.929705"><path d="M27.717 7.203a4.117 4.117 0 0 0-3.183 1.503l-6.053 7.75-3.488-6.846a.95.95 0 0 1 .848-1.383h1.273v-.47h-15c.859-.27 1.86-.687 2.782-1.326 0 0 2.267-1.496 2.468-3.643a2.488 2.488 0 1 0-2.468 2.187C3.626 7.58.006 7.755 0 7.755v.47h.389a2.853 2.853 0 0 1 2.852 2.853v12.29A2.853 2.853 0 0 1 .39 26.221H0v.47H7.877c-3.095 3.25-3.928 7.9-1.708 11.595a9.146 9.146 0 0 0 3.232 3.18c3.259 1.92 7.71 2.017 11.523-.1 3.357-1.865 5.42-5 5.793-8.231l-3.134-.848c.925 3.56-.146 7.062-2.94 8.614-2.587 1.436-5.94.805-8.6-1.318a.944.944 0 0 1-.14-1.316l8.714-11.153 1.996-2.554 8.408-10.763.002-.01c.513-.687.82-1.537.82-2.46a4.13 4.13 0 0 0-4.126-4.124ZM6.551 23.368V11.08a2.853 2.853 0 0 1 2.853-2.853 1.9 1.9 0 0 1 1.693 1.04L16.23 19.34l.236.461 1.619 3.175c-2.398-.277-4.976.186-7.315 1.483a12.266 12.266 0 0 0-2.265 1.614 2.852 2.852 0 0 1-1.953-2.705zM19.713 27.5 11.715 37.74a.95.95 0 0 1-1.491.01c-.307-.388-.595-.8-.857-1.238-2.649-4.41-1.895-9.597 1.683-11.584 2.548-1.415 5.843-.824 8.485 1.228.42.326.506.925.178 1.345zm9.024-11.548-5.444 6.968a.951.951 0 0 1-1.597-.155l-2.155-4.228a2.853 2.853 0 0 1 .294-3.05l3.297-4.233v.002A3.65 3.65 0 0 1 25.98 9.89a3.658 3.658 0 0 1 3.657 3.657c0 .921-.341 1.758-.904 2.402z"/></svg>